M48
T1C0,0300
T2C0,0320
T3C0,0319
T4C0,0500
T5C0,1000
%
M47 File: Fresado helicoidal.cwz
G90
G05
M72
T1
X02275Y02100
X02275Y02000
X01475Y01300
X02275Y01700
X02275Y01600
X02275Y01500
X02275Y01400
X02275Y01300
X02275Y01200
X02275Y01100
X02250Y01000
X01475Y02600
X01475Y02400
X01475Y02250
X01475Y02050
X01425Y01775
X02100Y00925
T2
X01375Y02000
X01375Y02100
X01375Y02200
X01375Y02300
X01375Y02400
X01375Y02500
X01375Y02600
X01375Y02700
X01075Y02700
X01075Y02600
X01075Y02500
X01075Y02400
X01075Y02300
X01075Y02200
X01075Y02100
X01075Y02000
X00350Y02700
X00350Y02600
X00350Y02500
X00350Y02400
X00350Y02300
X00350Y02200
X00350Y02100
X00975Y01900
X01275Y01900
X01275Y01800
X00975Y01800
X02375Y02650
X02375Y02550
X02375Y02450
X02375Y02350
X02375Y02250
X02475Y02250
X02475Y02350
X02475Y02450
X02475Y02550
X02475Y02650
X01575Y02700
X01575Y02600
X01575Y02500
X01575Y02400
X01575Y02300
X01575Y02200
X01575Y02100
X01575Y02000
X01575Y01900
X01575Y01800
X01575Y01700
X01575Y01600
X01575Y01500
X01575Y01400
X01575Y01300
X01575Y01200
X01575Y01100
X01575Y01000
X01575Y00900
X01575Y00800
X02175Y00800
X02175Y00900
X02175Y01000
X02175Y01100
X02175Y01200
X02175Y01300
X02175Y01400
X02175Y01500
X02175Y01600
X02175Y01700
X02175Y01800
X02175Y01900
X02175Y02000
X02175Y02100
X02175Y02200
X02175Y02300
X02175Y02400
X02175Y02500
X02175Y02600
X02175Y02700
X00500Y02100
X00800Y02100
X00500Y02200
X00800Y02200
X00500Y02300
X00800Y02300
X00500Y02400
X00800Y02400
X00500Y02500
X00800Y02500
X00500Y02600
X00800Y02600
X00500Y02700
X00800Y02700
X01275Y00750
X01175Y00650
X01075Y00750
X00825Y00750
X00725Y00650
X00625Y00750
X01025Y00600
X00925Y00500
X00825Y00600
X01475Y00600
X01375Y00500
X01275Y00600
X00725Y01100
X00725Y00800
X00925Y00950
X00925Y00650
X01175Y01100
X01175Y00800
X01375Y00950
X01375Y00650
X01575Y02763
X01575Y02862
X01675Y00325
X01775Y00325
X01875Y00325
X01950Y00550
X01850Y00550
X01600Y00550
X01700Y00550
X02700Y00950
X02400Y00950
X02700Y00850
X02400Y00850
X02700Y00750
X02400Y00750
X02700Y00650
X02400Y00650
X02700Y00550
X02400Y00550
X02550Y01975
X02650Y02075
X02750Y01975
X02650Y01600
X02650Y01900
X00325Y01900
X00325Y01800
X00325Y01700
X00325Y01500
X00325Y01400
X00325Y01300
X00325Y01100
X00325Y01000
X00325Y00900
X00325Y00700
X00325Y00600
X00325Y00500
T3
X01300Y01300
X01300Y01500
X01000Y01438
X01200Y01438
X01000Y01325
X01200Y01325
X00650Y01825
X00650Y01425
X00550Y01825
X00550Y01425
X02500Y01450
X02500Y01050
T4
X02275Y00325
X02075Y00325
X01250Y00350
X01050Y00350
X00850Y00350
X00650Y00350
X02700Y00300
X02550Y00450
X02550Y00150
X02850Y01450
X02850Y01250
X02850Y01050
X02850Y00850
X02850Y00650
X02850Y00450
X02850Y01675
T5
X00225Y00200
X00225Y02850
X02850Y00200
X02850Y02850
M30
