M48
T1C0,0300
T2C0,0320
T3C0,0500
T4C0,1000
%
M47 File: Fresado helicoidal.cwz
G90
G05
M72
T1
X01725Y00850
X01225Y00850
X01225Y00700
X01725Y00700
X01625Y01450
X01125Y01450
X01625Y01300
X01125Y01300
X00725Y01000
X00725Y00700
X00625Y01450
X00625Y01300
X02125Y01450
X02125Y01300
X00925Y00925
X00925Y00700
X01425Y00925
X01425Y00700
X01925Y00925
X01925Y00700
X00725Y00850
X00725Y01150
X01225Y01000
X01225Y01150
X01725Y01000
X01725Y01150
X02225Y01000
X02225Y01150
T2
X00625Y00625
X00725Y00625
X00825Y00625
X00925Y00625
X01025Y00625
X01025Y01225
X00925Y01225
X00825Y01225
X00725Y01225
X00625Y01225
X01125Y00625
X01225Y00625
X01325Y00625
X01425Y00625
X01525Y00625
X01525Y01225
X01425Y01225
X01325Y01225
X01225Y01225
X01125Y01225
X01625Y00625
X01725Y00625
X01825Y00625
X01925Y00625
X02025Y00625
X02025Y01225
X01925Y01225
X01825Y01225
X01725Y01225
X01625Y01225
X02125Y00625
X02225Y00625
X02325Y00625
X02425Y00625
X02525Y00625
X02525Y01225
X02425Y01225
X02325Y01225
X02225Y01225
X02125Y01225
X01475Y00175
X01475Y00275
X01725Y00175
X01725Y00275
X01975Y00175
X01975Y00275
X02225Y00175
X02225Y00275
X02450Y00475
X02450Y00375
X02450Y00275
X02450Y00175
T3
X00425Y01425
X00425Y01225
X00425Y01025
X00425Y00825
X00425Y00625
X00425Y00425
X00425Y00225
X00825Y00425
X01025Y00425
X01225Y00425
X01425Y00425
X01250Y00200
T4
X00225Y01425
X00225Y00225
X02675Y00225
X02675Y01425
M30
